<svg width="49" height="46" viewBox="0 0 49 46" fill="none" xmlns="http://www.w3.org/2000/svg">
<g clip-path="url(#clip0_30_13)">
<path d="M40.1534 19.4761C39.4491 19.0969 38.6343 18.8787 37.7657 18.8787H34.5559C33.6982 18.8787 32.8827 19.0935 32.1749 19.473C31.3884 19.7138 30.6261 20.0251 29.8991 20.4071L29.0351 20.0016C27.3933 19.2309 25.4569 19.4086 24.0158 20.4129L18.3693 15.112L20.6389 12.9814C21.2656 12.393 21.2656 11.4391 20.6389 10.8508L10.9605 1.76468C8.45739 -0.585097 4.38475 -0.585007 1.88182 1.76468C-0.627035 4.11984 -0.627513 7.932 1.88182 10.2875L11.5603 19.3734C12.1867 19.9615 13.2034 19.9617 13.8299 19.3734L16.0997 17.2426L21.7463 22.5436C20.6765 23.8964 20.4872 25.7141 21.3081 27.2556L22.8213 30.0965C22.9646 30.3655 23.1335 30.6155 23.3231 30.8469C23.3229 30.8751 23.3216 30.9036 23.3216 30.9317V44.4915C23.3216 45.3235 24.0402 45.9981 24.9266 45.9981H47.3951C48.2814 45.9981 49 45.3235 49 44.4915V30.9317C49 25.5938 45.2841 21.0559 40.1534 19.4761ZM12.6952 16.1773L4.15152 8.1567C2.89704 6.97921 2.89695 5.07326 4.15152 3.89532C5.40312 2.72043 7.4394 2.72052 8.69091 3.89532L17.2346 11.9159L12.6952 16.1773ZM33.3127 28.6608C34.4204 27.6211 34.9117 26.1923 34.6608 24.7408C34.5018 23.8204 34.0618 22.9979 33.4045 22.351C33.448 22.3092 33.493 22.2687 33.5413 22.2319C34.3869 22.0081 35.2669 21.8918 36.1609 21.8918C37.0682 21.8918 37.9466 22.0104 38.7795 22.2316C39.1399 22.5082 39.3707 22.9284 39.3707 23.3984V32.4382C39.3707 33.269 38.6508 33.9449 37.7658 33.9449H34.556C33.6711 33.9449 32.9511 33.269 32.9511 32.4382V29.0003H32.951L33.3127 28.6608ZM25.6921 28.7488L24.179 25.9079C23.8696 25.3271 23.9905 24.6281 24.4796 24.1687C24.6199 24.0369 24.2062 24.4255 25.7472 22.9788C26.2351 22.5208 26.9792 22.4052 27.5998 22.6966L30.6261 24.117C31.6071 24.5774 31.8186 25.802 31.0431 26.5299L28.2625 29.1403C27.4881 29.8671 26.1833 29.6713 25.6921 28.7488ZM45.7902 42.9847H26.5315V32.56C27.6898 32.6973 28.8077 32.4448 29.7413 31.8731V32.4382C29.7413 34.9305 31.901 36.9582 34.556 36.9582H37.7658C40.4206 36.9582 42.5805 34.9306 42.5805 32.4382V24.1999C44.5493 25.8563 45.7903 28.2603 45.7903 30.9316V42.9847H45.7902Z" fill="#176571"/>
<path d="M44.1853 9.83853H42.5803V8.33185C42.5803 7.4998 41.8618 6.82526 40.9754 6.82526C40.0891 6.82526 39.3705 7.4998 39.3705 8.33185V9.83853H37.7656C36.8793 9.83853 36.1606 10.5131 36.1606 11.3452C36.1606 12.1772 36.8792 12.8518 37.7656 12.8518H39.3705V14.3585C39.3705 15.1905 40.0891 15.8652 40.9754 15.8652C41.8617 15.8652 42.5803 15.1906 42.5803 14.3585V12.8518H44.1853C45.0716 12.8518 45.7901 12.1772 45.7901 11.3452C45.7901 10.5131 45.0716 9.83853 44.1853 9.83853Z" fill="#176571"/>
<path d="M18.507 33.9447H16.9021V32.4381C16.9021 31.606 16.1836 30.9314 15.2972 30.9314C14.4107 30.9314 13.6922 31.6059 13.6922 32.4381V33.9447H12.0874C11.2011 33.9447 10.4824 34.6192 10.4824 35.4513C10.4824 36.2835 11.201 36.958 12.0874 36.958H13.6922V38.4646C13.6922 39.2967 14.4107 39.9713 15.2972 39.9713C16.1836 39.9713 16.9021 39.2967 16.9021 38.4646V36.958H18.5069C19.3932 36.958 20.1119 36.2835 20.1119 35.4513C20.1119 34.6192 19.3933 33.9447 18.507 33.9447Z" fill="#176571"/>
<path d="M28.1359 12.8516C29.0223 12.8516 29.7409 12.1771 29.7409 11.3449C29.7409 10.5128 29.0223 9.83826 28.1359 9.83826C27.2496 9.83826 26.531 10.5128 26.531 11.3449C26.531 12.1771 27.2496 12.8516 28.1359 12.8516Z" fill="#176571"/>
</g>
<defs>
<clipPath id="clip0_30_13">
<rect width="49" height="46" fill="white"/>
</clipPath>
</defs>
</svg>
