<svg width="262" height="46" viewBox="0 0 262 46" fill="none" xmlns="http://www.w3.org/2000/svg">
<g clip-path="url(#clip0_36_2)">
<path d="M40.1534 19.4761C39.4491 19.0969 38.6343 18.8787 37.7657 18.8787H34.5559C33.6982 18.8787 32.8827 19.0935 32.1749 19.473C31.3884 19.7138 30.6261 20.0251 29.8991 20.4071L29.0351 20.0016C27.3933 19.2309 25.4569 19.4086 24.0158 20.4129L18.3693 15.112L20.6389 12.9814C21.2656 12.393 21.2656 11.4391 20.6389 10.8508L10.9605 1.76468C8.45739 -0.585097 4.38475 -0.585007 1.88182 1.76468C-0.627035 4.11984 -0.627513 7.932 1.88182 10.2875L11.5603 19.3734C12.1867 19.9615 13.2034 19.9617 13.8299 19.3734L16.0997 17.2426L21.7463 22.5436C20.6765 23.8964 20.4872 25.7141 21.3081 27.2556L22.8213 30.0965C22.9646 30.3655 23.1335 30.6155 23.3231 30.8469C23.3229 30.8751 23.3216 30.9036 23.3216 30.9317V44.4915C23.3216 45.3235 24.0402 45.9981 24.9266 45.9981H47.3951C48.2814 45.9981 49 45.3235 49 44.4915V30.9317C49 25.5938 45.2841 21.0559 40.1534 19.4761ZM12.6952 16.1773L4.15152 8.1567C2.89704 6.97921 2.89695 5.07326 4.15152 3.89532C5.40312 2.72043 7.4394 2.72052 8.69091 3.89532L17.2346 11.9159L12.6952 16.1773ZM33.3127 28.6608C34.4204 27.6211 34.9117 26.1923 34.6608 24.7408C34.5018 23.8204 34.0618 22.9979 33.4045 22.351C33.448 22.3092 33.493 22.2687 33.5413 22.2319C34.3869 22.0081 35.2669 21.8918 36.1609 21.8918C37.0682 21.8918 37.9466 22.0104 38.7795 22.2316C39.1399 22.5082 39.3707 22.9284 39.3707 23.3984V32.4382C39.3707 33.269 38.6508 33.9449 37.7658 33.9449H34.556C33.6711 33.9449 32.9511 33.269 32.9511 32.4382V29.0003H32.951L33.3127 28.6608ZM25.6921 28.7488L24.179 25.9079C23.8696 25.3271 23.9905 24.6281 24.4796 24.1687C24.6199 24.0369 24.2062 24.4255 25.7472 22.9788C26.2351 22.5208 26.9792 22.4052 27.5998 22.6966L30.6261 24.117C31.6071 24.5774 31.8186 25.802 31.0431 26.5299L28.2625 29.1403C27.4881 29.8671 26.1833 29.6713 25.6921 28.7488ZM45.7902 42.9847H26.5315V32.56C27.6898 32.6973 28.8077 32.4448 29.7413 31.8731V32.4382C29.7413 34.9305 31.901 36.9582 34.556 36.9582H37.7658C40.4206 36.9582 42.5805 34.9306 42.5805 32.4382V24.1999C44.5493 25.8563 45.7903 28.2603 45.7903 30.9316V42.9847H45.7902Z" fill="#176571"/>
<path d="M44.1853 9.83853H42.5803V8.33185C42.5803 7.4998 41.8618 6.82526 40.9754 6.82526C40.0891 6.82526 39.3705 7.4998 39.3705 8.33185V9.83853H37.7656C36.8793 9.83853 36.1606 10.5131 36.1606 11.3452C36.1606 12.1772 36.8792 12.8518 37.7656 12.8518H39.3705V14.3585C39.3705 15.1905 40.0891 15.8652 40.9754 15.8652C41.8617 15.8652 42.5803 15.1906 42.5803 14.3585V12.8518H44.1853C45.0716 12.8518 45.7901 12.1772 45.7901 11.3452C45.7901 10.5131 45.0716 9.83853 44.1853 9.83853Z" fill="#176571"/>
<path d="M18.507 33.9447H16.9021V32.4381C16.9021 31.606 16.1836 30.9314 15.2972 30.9314C14.4107 30.9314 13.6922 31.6059 13.6922 32.4381V33.9447H12.0874C11.2011 33.9447 10.4824 34.6192 10.4824 35.4513C10.4824 36.2835 11.201 36.958 12.0874 36.958H13.6922V38.4646C13.6922 39.2967 14.4107 39.9713 15.2972 39.9713C16.1836 39.9713 16.9021 39.2967 16.9021 38.4646V36.958H18.5069C19.3932 36.958 20.1119 36.2835 20.1119 35.4513C20.1119 34.6192 19.3933 33.9447 18.507 33.9447Z" fill="#176571"/>
<path d="M28.1359 12.8516C29.0223 12.8516 29.7409 12.1771 29.7409 11.3449C29.7409 10.5128 29.0223 9.83826 28.1359 9.83826C27.2496 9.83826 26.531 10.5128 26.531 11.3449C26.531 12.1771 27.2496 12.8516 28.1359 12.8516Z" fill="#176571"/>
</g>
<path d="M64.112 36.96C64.112 37.376 64.144 37.68 64.208 37.872C64.272 38.048 64.392 38.168 64.568 38.232C64.76 38.296 65.064 38.328 65.48 38.328H66.296C67.544 38.328 68.624 38 69.536 37.344C70.448 36.672 71.056 35.768 71.36 34.632C71.36 34.6 71.392 34.584 71.456 34.584C71.488 34.584 71.52 34.6 71.552 34.632C71.6 34.648 71.624 34.664 71.624 34.68C71.48 36.264 71.408 37.584 71.408 38.64C71.408 38.768 71.376 38.864 71.312 38.928C71.264 38.976 71.176 39 71.048 39H59.72C59.688 39 59.672 38.952 59.672 38.856C59.672 38.76 59.688 38.712 59.72 38.712C60.232 38.712 60.6 38.672 60.824 38.592C61.064 38.512 61.224 38.36 61.304 38.136C61.4 37.896 61.448 37.536 61.448 37.056V25.944C61.448 25.464 61.4 25.112 61.304 24.888C61.224 24.664 61.064 24.512 60.824 24.432C60.584 24.336 60.216 24.288 59.72 24.288C59.688 24.288 59.672 24.24 59.672 24.144C59.672 24.048 59.688 24 59.72 24L60.944 24.024C61.68 24.056 62.288 24.072 62.768 24.072C63.248 24.072 63.856 24.056 64.592 24.024L65.816 24C65.864 24 65.888 24.048 65.888 24.144C65.888 24.24 65.864 24.288 65.816 24.288C65.32 24.288 64.952 24.336 64.712 24.432C64.472 24.512 64.312 24.672 64.232 24.912C64.152 25.136 64.112 25.488 64.112 25.968V36.96ZM79.7341 39.144C79.6701 39.176 79.5901 39.192 79.4941 39.192C79.1741 39.192 78.8781 38.992 78.6061 38.592C78.3341 38.176 78.1981 37.632 78.1981 36.96V32.88C78.1981 31.856 78.1101 31.112 77.9341 30.648C77.7741 30.184 77.4941 29.952 77.0941 29.952C76.2461 29.952 75.7661 30.608 75.6541 31.92C75.6061 32.4 75.4621 32.744 75.2221 32.952C74.9981 33.16 74.6781 33.264 74.2621 33.264C73.8621 33.264 73.5661 33.184 73.3741 33.024C73.1981 32.848 73.1101 32.624 73.1101 32.352C73.1101 31.872 73.3901 31.416 73.9501 30.984C74.5101 30.536 75.1821 30.176 75.9661 29.904C76.7661 29.632 77.4701 29.496 78.0781 29.496C78.7821 29.496 79.3501 29.72 79.7821 30.168C80.2301 30.6 80.4541 31.264 80.4541 32.16V36.408C80.4541 36.872 80.5341 37.232 80.6941 37.488C80.8701 37.744 81.1101 37.872 81.4141 37.872C81.6381 37.872 81.8701 37.816 82.1101 37.704H82.1341C82.1981 37.704 82.2381 37.744 82.2541 37.824C82.2861 37.888 82.2701 37.936 82.2061 37.968L79.7341 39.144ZM75.1261 39.168C74.4381 39.168 73.9181 39.016 73.5661 38.712C73.2141 38.408 73.0381 37.984 73.0381 37.44C73.0381 37.008 73.1421 36.664 73.3501 36.408C73.5581 36.136 73.8141 35.928 74.1181 35.784C74.4381 35.624 74.8781 35.448 75.4381 35.256L76.0381 35.04L78.4381 34.152L78.5341 34.512L77.1661 35.136C77.1181 35.152 76.9581 35.216 76.6861 35.328C76.4141 35.424 76.1741 35.592 75.9661 35.832C75.7741 36.072 75.6781 36.352 75.6781 36.672C75.6781 37.056 75.7981 37.36 76.0381 37.584C76.2941 37.792 76.5821 37.896 76.9021 37.896C77.1581 37.896 77.4221 37.808 77.6941 37.632L78.8941 36.816L78.9181 37.2L77.2381 38.4C76.8701 38.672 76.5261 38.872 76.2061 39C75.8861 39.112 75.5261 39.168 75.1261 39.168ZM85.8517 32.184C86.7317 31.176 87.4357 30.48 87.9637 30.096C88.5077 29.696 88.9717 29.496 89.3557 29.496C89.7237 29.496 90.0757 29.632 90.4117 29.904C90.7637 30.16 90.9397 30.472 90.9397 30.84C90.9397 31.176 90.8357 31.456 90.6277 31.68C90.4197 31.888 90.1477 31.992 89.8117 31.992C89.5717 31.992 89.3717 31.944 89.2117 31.848C89.0677 31.752 88.9157 31.608 88.7557 31.416C88.6117 31.256 88.4837 31.144 88.3717 31.08C88.2757 31 88.1557 30.96 88.0117 30.96C87.8357 30.96 87.6117 31.056 87.3397 31.248C87.0837 31.44 86.6517 31.856 86.0437 32.496L85.8517 32.184ZM83.1157 39C83.0677 39 83.0437 38.952 83.0437 38.856C83.0437 38.76 83.0677 38.712 83.1157 38.712C83.6117 38.712 83.9477 38.6 84.1237 38.376C84.2997 38.136 84.3877 37.696 84.3877 37.056V32.544C84.3877 32.048 84.3237 31.688 84.1957 31.464C84.0837 31.224 83.8997 31.104 83.6437 31.104C83.3717 31.104 82.9877 31.216 82.4917 31.44H82.4437C82.3957 31.44 82.3557 31.4 82.3237 31.32C82.3077 31.24 82.3157 31.192 82.3477 31.176L85.6837 29.544C85.7797 29.512 85.8357 29.496 85.8517 29.496C86.0437 29.496 86.2197 29.704 86.3797 30.12C86.5557 30.52 86.6437 31.056 86.6437 31.728V37.056C86.6437 37.696 86.7957 38.136 87.0997 38.376C87.4037 38.6 87.9637 38.712 88.7797 38.712C88.8437 38.712 88.8757 38.76 88.8757 38.856C88.8757 38.952 88.8437 39 88.7797 39C88.2197 39 87.7797 38.992 87.4597 38.976L85.5157 38.952L84.0997 38.976C83.8597 38.992 83.5317 39 83.1157 39ZM92.2094 39C92.1614 39 92.1374 38.952 92.1374 38.856C92.1374 38.76 92.1614 38.712 92.2094 38.712C92.7054 38.712 93.0414 38.6 93.2174 38.376C93.3934 38.136 93.4814 37.696 93.4814 37.056V32.76C93.4814 32.216 93.4254 31.824 93.3134 31.584C93.2014 31.344 93.0174 31.224 92.7614 31.224C92.5534 31.224 92.2574 31.312 91.8734 31.488H91.8494C91.7854 31.488 91.7374 31.448 91.7054 31.368C91.6734 31.272 91.6814 31.216 91.7294 31.2L95.3534 29.52L95.4254 29.496C95.5054 29.496 95.5854 29.536 95.6654 29.616C95.7454 29.696 95.7854 29.768 95.7854 29.832V30.36C95.7534 31 95.7374 31.784 95.7374 32.712V37.056C95.7374 37.696 95.8254 38.136 96.0014 38.376C96.1934 38.6 96.5374 38.712 97.0334 38.712C97.0814 38.712 97.1054 38.76 97.1054 38.856C97.1054 38.952 97.0814 39 97.0334 39C96.6174 39 96.2894 38.992 96.0494 38.976L94.6094 38.952L93.1934 38.976C92.9534 38.992 92.6254 39 92.2094 39ZM94.5134 27.12C94.0494 27.12 93.6894 26.992 93.4334 26.736C93.1774 26.48 93.0494 26.12 93.0494 25.656C93.0494 25.24 93.1774 24.912 93.4334 24.672C93.7054 24.416 94.0654 24.288 94.5134 24.288C94.9614 24.288 95.3054 24.408 95.5454 24.648C95.7854 24.888 95.9054 25.224 95.9054 25.656C95.9054 26.12 95.7854 26.48 95.5454 26.736C95.3054 26.992 94.9614 27.12 94.5134 27.12ZM100.41 30.888C100.41 31.352 100.57 31.752 100.89 32.088C101.226 32.424 101.706 32.776 102.33 33.144C102.938 33.496 103.386 33.776 103.674 33.984C103.978 34.176 104.25 34.456 104.49 34.824C104.73 35.176 104.85 35.608 104.85 36.12C104.85 36.664 104.714 37.176 104.442 37.656C104.17 38.136 103.762 38.528 103.218 38.832C102.674 39.12 102.026 39.264 101.274 39.264C100.394 39.264 99.5621 39.048 98.7781 38.616C98.6821 38.52 98.6341 38.424 98.6341 38.328L98.5861 35.952C98.5861 35.904 98.6261 35.88 98.7061 35.88C98.8021 35.864 98.8581 35.872 98.8741 35.904C99.1301 36.704 99.5541 37.384 100.146 37.944C100.738 38.504 101.338 38.784 101.946 38.784C102.282 38.784 102.546 38.68 102.738 38.472C102.946 38.264 103.05 37.96 103.05 37.56C103.05 36.968 102.882 36.504 102.546 36.168C102.21 35.816 101.714 35.456 101.058 35.088C100.498 34.784 100.074 34.536 99.7861 34.344C99.4981 34.152 99.2421 33.88 99.0181 33.528C98.7941 33.176 98.6821 32.744 98.6821 32.232C98.6821 31.288 99.0181 30.6 99.6901 30.168C100.362 29.72 101.186 29.496 102.162 29.496C102.53 29.496 102.858 29.52 103.146 29.568C103.45 29.616 103.786 29.712 104.154 29.856C104.298 29.904 104.37 29.992 104.37 30.12C104.37 30.52 104.362 30.832 104.346 31.056L104.322 32.256C104.322 32.304 104.274 32.328 104.178 32.328C104.082 32.328 104.034 32.304 104.034 32.256C104.034 31.952 103.906 31.624 103.65 31.272C103.394 30.904 103.058 30.592 102.642 30.336C102.242 30.08 101.826 29.952 101.394 29.952C100.738 29.952 100.41 30.264 100.41 30.888ZM108.355 30.888C108.355 31.352 108.515 31.752 108.835 32.088C109.171 32.424 109.651 32.776 110.275 33.144C110.883 33.496 111.331 33.776 111.619 33.984C111.923 34.176 112.195 34.456 112.435 34.824C112.675 35.176 112.795 35.608 112.795 36.12C112.795 36.664 112.659 37.176 112.387 37.656C112.115 38.136 111.707 38.528 111.163 38.832C110.619 39.12 109.971 39.264 109.219 39.264C108.339 39.264 107.507 39.048 106.723 38.616C106.627 38.52 106.579 38.424 106.579 38.328L106.531 35.952C106.531 35.904 106.571 35.88 106.651 35.88C106.747 35.864 106.803 35.872 106.819 35.904C107.075 36.704 107.499 37.384 108.091 37.944C108.683 38.504 109.283 38.784 109.891 38.784C110.227 38.784 110.491 38.68 110.683 38.472C110.891 38.264 110.995 37.96 110.995 37.56C110.995 36.968 110.827 36.504 110.491 36.168C110.155 35.816 109.659 35.456 109.003 35.088C108.443 34.784 108.019 34.536 107.731 34.344C107.443 34.152 107.187 33.88 106.963 33.528C106.739 33.176 106.627 32.744 106.627 32.232C106.627 31.288 106.963 30.6 107.635 30.168C108.307 29.72 109.131 29.496 110.107 29.496C110.475 29.496 110.803 29.52 111.091 29.568C111.395 29.616 111.731 29.712 112.099 29.856C112.243 29.904 112.315 29.992 112.315 30.12C112.315 30.52 112.307 30.832 112.291 31.056L112.267 32.256C112.267 32.304 112.219 32.328 112.123 32.328C112.027 32.328 111.979 32.304 111.979 32.256C111.979 31.952 111.851 31.624 111.595 31.272C111.339 30.904 111.003 30.592 110.587 30.336C110.187 30.08 109.771 29.952 109.339 29.952C108.683 29.952 108.355 30.264 108.355 30.888ZM121.265 39.144C121.201 39.176 121.121 39.192 121.025 39.192C120.705 39.192 120.409 38.992 120.137 38.592C119.865 38.176 119.729 37.632 119.729 36.96V32.88C119.729 31.856 119.641 31.112 119.465 30.648C119.305 30.184 119.025 29.952 118.625 29.952C117.777 29.952 117.297 30.608 117.185 31.92C117.137 32.4 116.993 32.744 116.753 32.952C116.529 33.16 116.209 33.264 115.793 33.264C115.393 33.264 115.097 33.184 114.905 33.024C114.729 32.848 114.641 32.624 114.641 32.352C114.641 31.872 114.921 31.416 115.481 30.984C116.041 30.536 116.713 30.176 117.497 29.904C118.297 29.632 119.001 29.496 119.609 29.496C120.313 29.496 120.881 29.72 121.313 30.168C121.761 30.6 121.985 31.264 121.985 32.16V36.408C121.985 36.872 122.065 37.232 122.225 37.488C122.401 37.744 122.641 37.872 122.945 37.872C123.169 37.872 123.401 37.816 123.641 37.704H123.665C123.729 37.704 123.769 37.744 123.785 37.824C123.817 37.888 123.801 37.936 123.737 37.968L121.265 39.144ZM116.657 39.168C115.969 39.168 115.449 39.016 115.097 38.712C114.745 38.408 114.569 37.984 114.569 37.44C114.569 37.008 114.673 36.664 114.881 36.408C115.089 36.136 115.345 35.928 115.649 35.784C115.969 35.624 116.409 35.448 116.969 35.256L117.569 35.04L119.969 34.152L120.065 34.512L118.697 35.136C118.649 35.152 118.489 35.216 118.217 35.328C117.945 35.424 117.705 35.592 117.497 35.832C117.305 36.072 117.209 36.352 117.209 36.672C117.209 37.056 117.329 37.36 117.569 37.584C117.825 37.792 118.113 37.896 118.433 37.896C118.689 37.896 118.953 37.808 119.225 37.632L120.425 36.816L120.449 37.2L118.769 38.4C118.401 38.672 118.057 38.872 117.737 39C117.417 39.112 117.057 39.168 116.657 39.168ZM132.384 24.552L133.08 24.6L132.816 35.952C132.8 36.816 132.968 37.496 133.32 37.992C133.688 38.472 134.2 38.712 134.856 38.712C134.904 38.712 134.928 38.76 134.928 38.856C134.928 38.952 134.904 39 134.856 39C134.424 39 134.088 38.992 133.848 38.976L132.528 38.952L131.016 38.976C130.76 38.992 130.416 39 129.984 39C129.936 39 129.912 38.952 129.912 38.856C129.912 38.76 129.936 38.712 129.984 38.712C130.64 38.712 131.16 38.464 131.544 37.968C131.928 37.472 132.128 36.8 132.144 35.952L132.384 24.552ZM149.328 38.712C149.36 38.712 149.376 38.76 149.376 38.856C149.376 38.952 149.36 39 149.328 39C148.784 39 148.352 38.992 148.032 38.976L146.256 38.952L144.456 38.976C144.152 38.992 143.736 39 143.208 39C143.16 39 143.136 38.952 143.136 38.856C143.136 38.76 143.16 38.712 143.208 38.712C143.72 38.712 144.096 38.672 144.336 38.592C144.592 38.496 144.76 38.336 144.84 38.112C144.92 37.888 144.944 37.536 144.912 37.056L144.36 26.4L145.584 24.48L139.464 38.832C139.432 38.896 139.368 38.928 139.272 38.928C139.176 38.928 139.112 38.896 139.08 38.832L132.336 25.992C132.016 25.4 131.68 24.968 131.328 24.696C130.992 24.424 130.6 24.288 130.152 24.288C130.104 24.288 130.08 24.24 130.08 24.144C130.08 24.048 130.104 24 130.152 24L131.28 24.024C131.504 24.04 131.792 24.048 132.144 24.048L133.416 24.024C133.56 24.008 133.744 24 133.968 24C134.176 24 134.336 24.072 134.448 24.216C134.56 24.36 134.768 24.704 135.072 25.248L140.448 35.328L139.248 37.488L144.864 24.6C144.96 24.376 145.056 24.224 145.152 24.144C145.264 24.048 145.408 24 145.584 24C145.728 24 145.888 24.008 146.064 24.024C146.256 24.04 146.472 24.048 146.712 24.048L148.128 24.024C148.352 24.008 148.672 24 149.088 24C149.136 24 149.16 24.048 149.16 24.144C149.16 24.24 149.136 24.288 149.088 24.288C148.336 24.288 147.792 24.44 147.456 24.744C147.12 25.048 146.968 25.52 147 26.16L147.576 37.056C147.608 37.552 147.664 37.912 147.744 38.136C147.84 38.36 148 38.512 148.224 38.592C148.464 38.672 148.832 38.712 149.328 38.712ZM157.57 39.144C157.506 39.176 157.426 39.192 157.33 39.192C157.01 39.192 156.714 38.992 156.442 38.592C156.17 38.176 156.034 37.632 156.034 36.96V32.88C156.034 31.856 155.946 31.112 155.77 30.648C155.61 30.184 155.33 29.952 154.93 29.952C154.082 29.952 153.602 30.608 153.49 31.92C153.442 32.4 153.298 32.744 153.058 32.952C152.834 33.16 152.514 33.264 152.098 33.264C151.698 33.264 151.402 33.184 151.21 33.024C151.034 32.848 150.946 32.624 150.946 32.352C150.946 31.872 151.226 31.416 151.786 30.984C152.346 30.536 153.018 30.176 153.802 29.904C154.602 29.632 155.306 29.496 155.914 29.496C156.618 29.496 157.186 29.72 157.618 30.168C158.066 30.6 158.29 31.264 158.29 32.16V36.408C158.29 36.872 158.37 37.232 158.53 37.488C158.706 37.744 158.946 37.872 159.25 37.872C159.474 37.872 159.706 37.816 159.946 37.704H159.97C160.034 37.704 160.074 37.744 160.09 37.824C160.122 37.888 160.106 37.936 160.042 37.968L157.57 39.144ZM152.962 39.168C152.274 39.168 151.754 39.016 151.402 38.712C151.05 38.408 150.874 37.984 150.874 37.44C150.874 37.008 150.978 36.664 151.186 36.408C151.394 36.136 151.65 35.928 151.954 35.784C152.274 35.624 152.714 35.448 153.274 35.256L153.874 35.04L156.274 34.152L156.37 34.512L155.002 35.136C154.954 35.152 154.794 35.216 154.522 35.328C154.25 35.424 154.01 35.592 153.802 35.832C153.61 36.072 153.514 36.352 153.514 36.672C153.514 37.056 153.634 37.36 153.874 37.584C154.13 37.792 154.418 37.896 154.738 37.896C154.994 37.896 155.258 37.808 155.53 37.632L156.73 36.816L156.754 37.2L155.074 38.4C154.706 38.672 154.362 38.872 154.042 39C153.722 39.112 153.362 39.168 152.962 39.168ZM163.688 32.184C164.568 31.176 165.272 30.48 165.8 30.096C166.344 29.696 166.808 29.496 167.192 29.496C167.56 29.496 167.912 29.632 168.248 29.904C168.6 30.16 168.776 30.472 168.776 30.84C168.776 31.176 168.672 31.456 168.464 31.68C168.256 31.888 167.984 31.992 167.648 31.992C167.408 31.992 167.208 31.944 167.048 31.848C166.904 31.752 166.752 31.608 166.592 31.416C166.448 31.256 166.32 31.144 166.208 31.08C166.112 31 165.992 30.96 165.848 30.96C165.672 30.96 165.448 31.056 165.176 31.248C164.92 31.44 164.488 31.856 163.88 32.496L163.688 32.184ZM160.952 39C160.904 39 160.88 38.952 160.88 38.856C160.88 38.76 160.904 38.712 160.952 38.712C161.448 38.712 161.784 38.6 161.96 38.376C162.136 38.136 162.224 37.696 162.224 37.056V32.544C162.224 32.048 162.16 31.688 162.032 31.464C161.92 31.224 161.736 31.104 161.48 31.104C161.208 31.104 160.824 31.216 160.328 31.44H160.28C160.232 31.44 160.192 31.4 160.16 31.32C160.144 31.24 160.152 31.192 160.184 31.176L163.52 29.544C163.616 29.512 163.672 29.496 163.688 29.496C163.88 29.496 164.056 29.704 164.216 30.12C164.392 30.52 164.48 31.056 164.48 31.728V37.056C164.48 37.696 164.632 38.136 164.936 38.376C165.24 38.6 165.8 38.712 166.616 38.712C166.68 38.712 166.712 38.76 166.712 38.856C166.712 38.952 166.68 39 166.616 39C166.056 39 165.616 38.992 165.296 38.976L163.352 38.952L161.936 38.976C161.696 38.992 161.368 39 160.952 39ZM173.58 39.312C172.86 39.312 172.196 39.144 171.588 38.808C170.98 38.472 170.492 37.968 170.124 37.296C169.772 36.624 169.596 35.808 169.596 34.848C169.596 33.696 169.852 32.712 170.364 31.896C170.876 31.08 171.54 30.464 172.356 30.048C173.188 29.632 174.06 29.424 174.972 29.424C176.332 29.424 177.492 29.76 178.452 30.432L177.036 32.688C177.036 32.064 176.9 31.544 176.628 31.128C176.356 30.712 176.02 30.408 175.62 30.216C175.22 30.024 174.836 29.928 174.468 29.928C173.668 29.928 173.068 30.272 172.668 30.96C172.268 31.632 172.068 32.616 172.068 33.912C172.068 35.304 172.3 36.344 172.764 37.032C173.228 37.704 173.868 38.04 174.684 38.04C175.564 38.04 176.444 37.688 177.324 36.984L177.54 37.152C176.868 37.84 176.236 38.376 175.644 38.76C175.068 39.128 174.38 39.312 173.58 39.312ZM175.164 45.6C175.132 45.6 175.116 45.552 175.116 45.456C175.116 45.36 175.132 45.312 175.164 45.312C175.708 45.312 176.108 45.264 176.364 45.168C176.62 45.088 176.796 44.936 176.892 44.712C176.988 44.488 177.036 44.136 177.036 43.656V30.888L180.348 29.688L180.396 29.664C180.444 29.664 180.476 29.704 180.492 29.784C180.508 29.864 180.492 29.912 180.444 29.928C180.044 30.136 179.748 30.4 179.556 30.72C179.364 31.04 179.268 31.44 179.268 31.92V43.656C179.268 44.136 179.3 44.488 179.364 44.712C179.444 44.936 179.572 45.088 179.748 45.168C179.94 45.264 180.228 45.312 180.612 45.312C180.66 45.312 180.684 45.36 180.684 45.456C180.684 45.552 180.66 45.6 180.612 45.6C180.196 45.6 179.86 45.592 179.604 45.576L178.164 45.552L176.46 45.576C176.156 45.592 175.724 45.6 175.164 45.6ZM185.483 39.288C184.603 39.288 183.907 39.016 183.395 38.472C182.899 37.912 182.651 37.184 182.651 36.288V32.76C182.651 31.72 182.403 31.2 181.907 31.2C181.731 31.2 181.531 31.256 181.307 31.368H181.283C181.219 31.368 181.171 31.328 181.139 31.248C181.107 31.152 181.115 31.096 181.163 31.08L184.379 29.544L184.499 29.52C184.579 29.52 184.659 29.56 184.739 29.64C184.835 29.704 184.883 29.768 184.883 29.832V35.136C184.883 36.864 185.547 37.728 186.875 37.728C187.323 37.728 187.779 37.6 188.243 37.344C188.723 37.088 189.099 36.752 189.371 36.336L189.515 36.624C188.939 37.456 188.315 38.112 187.643 38.592C186.971 39.056 186.251 39.288 185.483 39.288ZM191.147 36.216C191.147 36.76 191.195 37.144 191.291 37.368C191.403 37.592 191.579 37.704 191.819 37.704C192.043 37.704 192.371 37.616 192.803 37.44H192.851C192.899 37.44 192.939 37.48 192.971 37.56C193.019 37.64 193.019 37.688 192.971 37.704L189.659 39.312C189.627 39.328 189.587 39.336 189.539 39.336C189.363 39.336 189.211 39.128 189.083 38.712C188.971 38.296 188.915 37.736 188.915 37.032V32.76C188.915 31.72 188.667 31.2 188.171 31.2C187.995 31.2 187.787 31.256 187.547 31.368H187.523C187.475 31.368 187.435 31.328 187.403 31.248C187.371 31.152 187.379 31.096 187.427 31.08L190.643 29.544C190.675 29.528 190.715 29.52 190.763 29.52C190.843 29.52 190.923 29.56 191.003 29.64C191.099 29.704 191.147 29.768 191.147 29.832V36.216ZM198.632 39.288C197.624 39.288 196.752 39.08 196.016 38.664C195.28 38.232 194.72 37.664 194.336 36.96C193.952 36.24 193.76 35.464 193.76 34.632C193.76 33.704 193.992 32.848 194.456 32.064C194.92 31.28 195.56 30.664 196.376 30.216C197.208 29.752 198.144 29.52 199.184 29.52C200.176 29.52 200.944 29.744 201.488 30.192C202.032 30.64 202.304 31.336 202.304 32.28C202.304 32.776 202.216 33.024 202.04 33.024H199.736C199.768 32.048 199.672 31.304 199.448 30.792C199.224 30.264 198.832 30 198.272 30C197.632 30 197.12 30.328 196.736 30.984C196.368 31.64 196.184 32.512 196.184 33.6C196.184 35.008 196.504 36.112 197.144 36.912C197.8 37.712 198.736 38.112 199.952 38.112C200.384 38.112 200.752 38.064 201.056 37.968C201.36 37.856 201.76 37.68 202.256 37.44L202.304 37.416C202.336 37.416 202.368 37.448 202.4 37.512C202.448 37.576 202.456 37.624 202.424 37.656C201.832 38.232 201.232 38.648 200.624 38.904C200.016 39.16 199.352 39.288 198.632 39.288ZM195.32 32.592L200.576 32.496V33.024L195.344 33.048L195.32 32.592ZM205.855 30.888C205.855 31.352 206.015 31.752 206.335 32.088C206.671 32.424 207.151 32.776 207.775 33.144C208.383 33.496 208.831 33.776 209.119 33.984C209.423 34.176 209.695 34.456 209.935 34.824C210.175 35.176 210.295 35.608 210.295 36.12C210.295 36.664 210.159 37.176 209.887 37.656C209.615 38.136 209.207 38.528 208.663 38.832C208.119 39.12 207.471 39.264 206.719 39.264C205.839 39.264 205.007 39.048 204.223 38.616C204.127 38.52 204.079 38.424 204.079 38.328L204.031 35.952C204.031 35.904 204.071 35.88 204.151 35.88C204.247 35.864 204.303 35.872 204.319 35.904C204.575 36.704 204.999 37.384 205.591 37.944C206.183 38.504 206.783 38.784 207.391 38.784C207.727 38.784 207.991 38.68 208.183 38.472C208.391 38.264 208.495 37.96 208.495 37.56C208.495 36.968 208.327 36.504 207.991 36.168C207.655 35.816 207.159 35.456 206.503 35.088C205.943 34.784 205.519 34.536 205.231 34.344C204.943 34.152 204.687 33.88 204.463 33.528C204.239 33.176 204.127 32.744 204.127 32.232C204.127 31.288 204.463 30.6 205.135 30.168C205.807 29.72 206.631 29.496 207.607 29.496C207.975 29.496 208.303 29.52 208.591 29.568C208.895 29.616 209.231 29.712 209.599 29.856C209.743 29.904 209.815 29.992 209.815 30.12C209.815 30.52 209.807 30.832 209.791 31.056L209.767 32.256C209.767 32.304 209.719 32.328 209.623 32.328C209.527 32.328 209.479 32.304 209.479 32.256C209.479 31.952 209.351 31.624 209.095 31.272C208.839 30.904 208.503 30.592 208.087 30.336C207.687 30.08 207.271 29.952 206.839 29.952C206.183 29.952 205.855 30.264 205.855 30.888Z" fill="white"/>
<path d="M216.048 24.552L216.768 24.6V35.952C216.768 36.8 216.944 37.472 217.296 37.968C217.648 38.464 218.136 38.712 218.76 38.712C218.792 38.712 218.808 38.76 218.808 38.856C218.808 38.952 218.792 39 218.76 39C218.312 39 217.968 38.992 217.728 38.976L216.432 38.952L214.944 38.976C214.672 38.992 214.28 39 213.768 39C213.72 39 213.696 38.952 213.696 38.856C213.696 38.76 213.72 38.712 213.768 38.712C214.472 38.712 215.024 38.464 215.424 37.968C215.84 37.472 216.048 36.8 216.048 35.952V24.552ZM228.288 39.36C228.288 39.408 228.248 39.44 228.168 39.456C228.104 39.472 228.056 39.464 228.024 39.432L216.192 25.968C215.632 25.328 215.152 24.888 214.752 24.648C214.352 24.408 213.944 24.288 213.528 24.288C213.496 24.288 213.48 24.24 213.48 24.144C213.48 24.048 213.496 24 213.528 24L214.536 24.024C214.744 24.04 215.048 24.048 215.448 24.048L217.272 24.024C217.496 24.008 217.768 24 218.088 24C218.216 24 218.312 24.032 218.376 24.096C218.44 24.16 218.552 24.296 218.712 24.504C218.984 24.872 219.176 25.12 219.288 25.248L228.096 35.4L228.288 39.36ZM228.288 39.36L227.592 38.64V27.072C227.592 26.208 227.416 25.528 227.064 25.032C226.712 24.536 226.224 24.288 225.6 24.288C225.568 24.288 225.552 24.24 225.552 24.144C225.552 24.048 225.568 24 225.6 24L226.632 24.024C227.144 24.056 227.576 24.072 227.928 24.072C228.248 24.072 228.696 24.056 229.272 24.024L230.352 24C230.384 24 230.4 24.048 230.4 24.144C230.4 24.24 230.384 24.288 230.352 24.288C229.712 24.288 229.208 24.544 228.84 25.056C228.472 25.552 228.288 26.224 228.288 27.072V39.36ZM238.304 39.144C238.24 39.176 238.16 39.192 238.064 39.192C237.744 39.192 237.448 38.992 237.176 38.592C236.904 38.176 236.768 37.632 236.768 36.96V32.88C236.768 31.856 236.68 31.112 236.504 30.648C236.344 30.184 236.064 29.952 235.664 29.952C234.816 29.952 234.336 30.608 234.224 31.92C234.176 32.4 234.032 32.744 233.792 32.952C233.568 33.16 233.248 33.264 232.832 33.264C232.432 33.264 232.136 33.184 231.944 33.024C231.768 32.848 231.68 32.624 231.68 32.352C231.68 31.872 231.96 31.416 232.52 30.984C233.08 30.536 233.752 30.176 234.536 29.904C235.336 29.632 236.04 29.496 236.648 29.496C237.352 29.496 237.92 29.72 238.352 30.168C238.8 30.6 239.024 31.264 239.024 32.16V36.408C239.024 36.872 239.104 37.232 239.264 37.488C239.44 37.744 239.68 37.872 239.984 37.872C240.208 37.872 240.44 37.816 240.68 37.704H240.704C240.768 37.704 240.808 37.744 240.824 37.824C240.856 37.888 240.84 37.936 240.776 37.968L238.304 39.144ZM233.696 39.168C233.008 39.168 232.488 39.016 232.136 38.712C231.784 38.408 231.608 37.984 231.608 37.44C231.608 37.008 231.712 36.664 231.92 36.408C232.128 36.136 232.384 35.928 232.688 35.784C233.008 35.624 233.448 35.448 234.008 35.256L234.608 35.04L237.008 34.152L237.104 34.512L235.736 35.136C235.688 35.152 235.528 35.216 235.256 35.328C234.984 35.424 234.744 35.592 234.536 35.832C234.344 36.072 234.248 36.352 234.248 36.672C234.248 37.056 234.368 37.36 234.608 37.584C234.864 37.792 235.152 37.896 235.472 37.896C235.728 37.896 235.992 37.808 236.264 37.632L237.464 36.816L237.488 37.2L235.808 38.4C235.44 38.672 235.096 38.872 234.776 39C234.456 39.112 234.096 39.168 233.696 39.168ZM241.686 39C241.638 39 241.614 38.952 241.614 38.856C241.614 38.76 241.638 38.712 241.686 38.712C242.182 38.712 242.518 38.6 242.694 38.376C242.87 38.136 242.958 37.696 242.958 37.056V32.76C242.958 32.216 242.902 31.824 242.79 31.584C242.678 31.344 242.494 31.224 242.238 31.224C242.03 31.224 241.734 31.312 241.35 31.488H241.326C241.262 31.488 241.214 31.448 241.182 31.368C241.15 31.272 241.158 31.216 241.206 31.2L244.83 29.52L244.902 29.496C244.982 29.496 245.062 29.536 245.142 29.616C245.222 29.696 245.262 29.768 245.262 29.832V30.36C245.23 31 245.214 31.784 245.214 32.712V37.056C245.214 37.696 245.302 38.136 245.478 38.376C245.67 38.6 246.014 38.712 246.51 38.712C246.558 38.712 246.582 38.76 246.582 38.856C246.582 38.952 246.558 39 246.51 39C246.094 39 245.766 38.992 245.526 38.976L244.086 38.952L242.67 38.976C242.43 38.992 242.102 39 241.686 39ZM243.99 27.12C243.526 27.12 243.166 26.992 242.91 26.736C242.654 26.48 242.526 26.12 242.526 25.656C242.526 25.24 242.654 24.912 242.91 24.672C243.182 24.416 243.542 24.288 243.99 24.288C244.438 24.288 244.782 24.408 245.022 24.648C245.262 24.888 245.382 25.224 245.382 25.656C245.382 26.12 245.262 26.48 245.022 26.736C244.782 26.992 244.438 27.12 243.99 27.12ZM247.895 39C247.863 39 247.847 38.952 247.847 38.856C247.847 38.76 247.863 38.712 247.895 38.712C248.391 38.712 248.727 38.6 248.903 38.376C249.095 38.136 249.191 37.696 249.191 37.056L249.215 24.864C249.215 24.304 249.159 23.904 249.047 23.664C248.951 23.424 248.775 23.304 248.519 23.304C248.311 23.304 248.007 23.392 247.607 23.568H247.583C247.535 23.568 247.487 23.528 247.439 23.448C247.407 23.352 247.407 23.296 247.439 23.28L250.967 21.624L251.063 21.6C251.143 21.6 251.231 21.64 251.327 21.72C251.423 21.784 251.471 21.848 251.471 21.912V37.056C251.471 37.696 251.559 38.136 251.735 38.376C251.911 38.6 252.247 38.712 252.743 38.712C252.807 38.712 252.839 38.76 252.839 38.856C252.839 38.952 252.807 39 252.743 39C252.343 39 252.023 38.992 251.783 38.976L250.319 38.952L248.879 38.976C248.639 38.992 248.311 39 247.895 39ZM256.309 30.888C256.309 31.352 256.469 31.752 256.789 32.088C257.125 32.424 257.605 32.776 258.229 33.144C258.837 33.496 259.285 33.776 259.573 33.984C259.877 34.176 260.149 34.456 260.389 34.824C260.629 35.176 260.749 35.608 260.749 36.12C260.749 36.664 260.613 37.176 260.341 37.656C260.069 38.136 259.661 38.528 259.117 38.832C258.573 39.12 257.925 39.264 257.173 39.264C256.293 39.264 255.461 39.048 254.677 38.616C254.581 38.52 254.533 38.424 254.533 38.328L254.485 35.952C254.485 35.904 254.525 35.88 254.605 35.88C254.701 35.864 254.757 35.872 254.773 35.904C255.029 36.704 255.453 37.384 256.045 37.944C256.637 38.504 257.237 38.784 257.845 38.784C258.181 38.784 258.445 38.68 258.637 38.472C258.845 38.264 258.949 37.96 258.949 37.56C258.949 36.968 258.781 36.504 258.445 36.168C258.109 35.816 257.613 35.456 256.957 35.088C256.397 34.784 255.973 34.536 255.685 34.344C255.397 34.152 255.141 33.88 254.917 33.528C254.693 33.176 254.581 32.744 254.581 32.232C254.581 31.288 254.917 30.6 255.589 30.168C256.261 29.72 257.085 29.496 258.061 29.496C258.429 29.496 258.757 29.52 259.045 29.568C259.349 29.616 259.685 29.712 260.053 29.856C260.197 29.904 260.269 29.992 260.269 30.12C260.269 30.52 260.261 30.832 260.245 31.056L260.221 32.256C260.221 32.304 260.173 32.328 260.077 32.328C259.981 32.328 259.933 32.304 259.933 32.256C259.933 31.952 259.805 31.624 259.549 31.272C259.293 30.904 258.957 30.592 258.541 30.336C258.141 30.08 257.725 29.952 257.293 29.952C256.637 29.952 256.309 30.264 256.309 30.888Z" fill="#176571"/>
<defs>
<clipPath id="clip0_36_2">
<rect width="49" height="46" fill="white"/>
</clipPath>
</defs>
</svg>
